# xmcd CD database file
#
# Track frame offsets:
#	150
#	23577
#	43981
#	61444
#	91964
#	116610
#	138480
#	153489
#	185601
#	204713
#
# Disc length: 3082 seconds
#
# Revision: 0
# Processed by: cddbd v1.5.2PL0 Copyright (c) Steve Scherf et al.
# Submitted via: CDex 1.70beta2
#
DISCID=8d0c080a
DTITLE=Miguel - The Opener
DYEAR=2008
DGENRE=Jazz
TTITLE0=Groove Merchant
TTITLE1=Where's My Baby
TTITLE2=St James Infirmary
TTITLE3=Caravan
TTITLE4=Dan The Pirate
TTITLE5=Mistake
TTITLE6=Happy Feet
TTITLE7=Masada
TTITLE8=Hooray For Hollywood
TTITLE9=Latin
EXTD=YEAR: 2008
EXTT0=
EXTT1=
EXTT2=
EXTT3=
EXTT4=
EXTT5=
EXTT6=
EXTT7=
EXTT8=
EXTT9=
PLAYORDER=
